<?xml version="1.0" encoding="UTF-8" standalone="no"?>
<svg
   version="1.0"
   width="823.000000pt"
   height="1280.000000pt"
   viewBox="0 0 823.000000 1280.000000"
   preserveAspectRatio="xMidYMid meet"
   id="svg68"
   sodipodi:docname="accession.svg"
   inkscape:version="1.1.2 (b8e25be833, 2022-02-05)"
   xmlns:inkscape="http://www.inkscape.org/namespaces/inkscape"
   xmlns:sodipodi="http://sodipodi.sourceforge.net/DTD/sodipodi-0.dtd"
   xmlns="http://www.w3.org/2000/svg"
   xmlns:svg="http://www.w3.org/2000/svg">
  <defs
     id="defs72" />
  <sodipodi:namedview
     id="namedview70"
     pagecolor="#ffffff"
     bordercolor="#666666"
     borderopacity="1.0"
     inkscape:pageshadow="2"
     inkscape:pageopacity="0.0"
     inkscape:pagecheckerboard="0"
     inkscape:document-units="pt"
     showgrid="false"
     inkscape:zoom="0.42128906"
     inkscape:cx="549.50394"
     inkscape:cy="853.33333"
     inkscape:window-width="2400"
     inkscape:window-height="1271"
     inkscape:window-x="-2409"
     inkscape:window-y="-9"
     inkscape:window-maximized="1"
     inkscape:current-layer="svg68" />
  <metadata
     id="metadata2">
Created by potrace 1.15, written by Peter Selinger 2001-2017
</metadata>
  <g
     transform="translate(0.000000,1280.000000) scale(0.100000,-0.100000)"
     fill="#000000"
     stroke="none"
     id="g66"
     style="fill:#000000;fill-opacity:0.41154563">
    <path
       d="M4998 12579 c-27 -107 -59 -248 -73 -315 -26 -124 -59 -234 -90 -295 -10 -19 -66 -108 -126 -199 -112 -172 -250 -427 -292 -540 -35 -94 -39 -142 -28 -361 17 -323 42 -470 147 -859 54 -203 77 -268 129 -380 52 -109 79 -187 140 -405 159 -562 166 -606 172 -1085 l6 -365 18 44 c11 24 24 75 30 115 6 39 27 134 47 211 35 135 36 146 36 310 0 201 0 199 -166 725 -138 435 -162 524 -193 710 -14 85 -38 198 -52 250 -21 75 -28 129 -34 255 -4 88 -8 169 -8 180 0 11 1 162 2 335 l2 315 32 67 c18 37 36 98 42 135 7 53 25 99 83 213 84 163 137 316 173 494 32 161 57 406 53 535 l-3 104 -47 -194z"
       id="path4"
       style="fill:#000000;fill-opacity:0.41154563" />
    <path
       d="M4753 12233 c-7 -2 -15 -19 -19 -36 -3 -18 -22 -57 -42 -87 -37 -55 -100 -97 -176 -116 l-29 -7 5 73 c6 79 -3 135 -25 157 -12 12 -20 0 -62 -84 -43 -90 -48 -108 -60 -218 -17 -152 -36 -245 -51 -245 -6 0 -14 -9 -17 -20 -4 -17 -14 -20 -70 -20 -54 0 -67 3 -71 18 -21 75 -37 168 -51 287 -9 77 -18 141 -20 143 -2 2 -15 -34 -29 -80 -14 -46 -44 -114 -67 -153 -23 -38 -58 -103 -77 -145 l-35 -75 -7 -198 c-4 -108 -4 -214 0 -235 29 -140 183 -460 355 -735 54 -86 99 -156 100 -155 1 2 -8 54 -21 116 -49 243 -54 433 -18 708 37 291 62 359 203 558 136 191 255 399 291 509 13 41 12 47 -7 40z"
       id="path6"
       style="fill:#000000;fill-opacity:0.41154563" />
    <path
       d="M3527 12090 c-3 -8 -15 -63 -26 -122 -63 -332 -50 -676 35 -935 36 -108 113 -266 167 -339 54 -73 77 -116 77 -142 0 -11 7 -25 15 -32 8 -7 15 -19 15 -26 0 -8 10 -18 23 -23 25 -10 249 -356 323 -499 53 -104 117 -267 214 -543 175 -499 253 -873 267 -1264 4 -144 0 -220 -26 -500 -41 -430 -63 -573 -115 -758 -24 -84 -47 -181 -50 -217 -9 -85 -31 -161 -66 -229 -15 -31 -40 -96 -54 -145 -25 -81 -62 -156 -77 -156 -4 0 4 42 17 93 41 160 72 319 79 407 5 54 18 113 35 160 16 41 31 84 34 95 20 74 66 501 66 610 0 33 -9 89 -21 125 -11 35 -31 159 -44 275 -14 115 -30 228 -36 250 -75 271 -199 657 -235 734 -96 205 -139 267 -283 413 l-134 138 -101 39 c-56 22 -146 60 -201 85 -83 38 -110 46 -160 46 -118 0 -279 -61 -367 -139 -52 -47 -137 -150 -161 -196 -8 -17 -36 -123 -62 -235 -26 -113 -57 -240 -71 -283 -20 -65 -24 -99 -24 -203 l0 -125 -47 32 c-27 18 -62 45 -79 61 -18 16 -51 34 -75 39 -24 6 -82 32 -129 60 -47 27 -97 49 -110 49 -33 0 -58 -16 -45 -29 10 -9 236 -114 317 -147 27 -10 48 -22 48 -25 0 -7 -234 -36 -293 -37 -21 0 -49 -8 -62 -16 -16 -11 -48 -16 -92 -16 -51 0 -76 -5 -98 -20 l-30 -20 99 0 c90 0 102 2 124 23 23 21 30 22 174 20 83 -1 152 -4 154 -5 2 -2 -13 -73 -32 -157 -18 -85 -33 -155 -32 -157 2 -1 46 29 98 67 159 116 124 122 306 -44 195 -177 229 -206 222 -187 -31 85 -129 392 -126 396 3 2 44 -10 93 -26 49 -16 90 -29 91 -27 2 1 -65 48 -149 102 l-151 100 64 12 c36 7 106 16 155 19 65 5 97 12 114 25 17 14 41 19 83 19 41 0 60 4 64 14 3 8 17 16 32 19 36 8 92 44 92 58 0 8 -6 7 -17 -3 -10 -9 -43 -19 -73 -23 -30 -4 -64 -14 -75 -21 -11 -8 -41 -14 -68 -14 -34 0 -57 -6 -75 -21 -24 -19 -37 -20 -148 -17 l-122 3 -45 -32 -44 -32 -7 52 c-9 79 -7 271 4 372 22 195 93 362 205 483 74 80 121 107 272 157 l113 37 34 -21 c19 -12 50 -21 74 -21 22 0 44 -5 48 -11 3 -6 29 -25 58 -44 58 -37 168 -146 251 -250 148 -184 242 -357 325 -599 28 -82 73 -203 99 -270 58 -145 83 -222 113 -341 21 -83 22 -114 23 -380 0 -241 3 -301 18 -358 29 -116 23 -214 -29 -446 -66 -302 -91 -373 -168 -494 -60 -94 -84 -152 -106 -257 -12 -58 -38 -145 -57 -195 -30 -78 -35 -108 -43 -226 -5 -75 -19 -212 -31 -305 -26 -209 -27 -326 -11 -714 14 -346 21 -415 63 -590 16 -69 46 -215 65 -325 44 -252 72 -360 131 -494 25 -58 61 -150 79 -204 18 -54 47 -115 63 -136 24 -30 35 -61 51 -140 11 -55 35 -143 53 -195 38 -109 41 -109 -80 0 -89 80 -133 137 -133 173 0 53 -47 126 -139 222 -51 51 -102 111 -113 131 -16 27 -59 62 -172 136 -83 54 -182 117 -221 140 -93 54 -485 217 -594 246 -270 73 -345 91 -531 122 -113 19 -230 41 -260 48 -30 8 -56 13 -58 11 -7 -7 152 -58 279 -90 167 -42 211 -59 439 -164 193 -90 271 -134 375 -212 132 -99 400 -324 535 -450 74 -69 185 -164 245 -211 146 -114 190 -162 271 -293 163 -266 199 -376 268 -815 20 -124 51 -315 70 -425 20 -111 42 -286 51 -390 9 -105 18 -203 20 -220 3 -16 18 -111 34 -210 16 -99 33 -213 37 -252 l7 -73 350 0 350 0 -7 168 c-4 92 -11 190 -17 217 -5 28 -14 221 -18 430 -8 371 -9 384 -40 530 -17 83 -40 209 -52 280 -33 209 -141 618 -230 874 -28 81 -84 272 -124 426 -40 154 -98 363 -129 463 -31 101 -56 188 -56 193 0 6 -20 62 -44 127 -24 64 -46 140 -50 167 -4 28 -18 93 -31 145 -51 203 -130 686 -171 1045 -25 215 -23 514 4 790 53 528 104 761 223 1015 44 95 59 140 64 190 4 36 22 121 41 190 57 213 67 310 67 625 0 370 -24 589 -104 989 -44 218 -87 375 -145 536 -50 135 -287 611 -356 715 -30 44 -77 114 -105 155 -82 119 -118 190 -217 419 -251 581 -354 937 -375 1296 -4 66 -10 113 -14 105z"
       id="path8"
       style="fill:#000000;fill-opacity:0.41154563" />
    <path
       d="M5590 11925 c-27 -29 -130 -84 -195 -105 -22 -7 -79 -28 -127 -46 -73 -28 -101 -34 -166 -34 l-79 0 -35 -70 c-29 -59 -32 -70 -17 -70 9 0 22 7 29 15 7 8 29 15 50 15 24 0 43 7 55 20 15 17 31 20 91 20 243 0 439 -76 593 -230 57 -57 116 -132 135 -173 5 -9 8 -9 12 1 3 6 12 12 20 12 8 0 14 7 14 15 0 8 10 35 22 60 30 61 17 72 -51 43 -39 -16 -58 -19 -70 -11 -29 18 -61 75 -61 111 0 42 45 195 71 240 l18 32 -86 0 -87 0 -48 51 c-32 34 -50 63 -55 90 l-8 41 -25 -27z"
       id="path10"
       style="fill:#000000;fill-opacity:0.41154563" />
    <path
       d="M5192 11520 c-179 -25 -302 -119 -356 -275 -18 -51 -36 -165 -26 -165 3 0 14 19 24 42 22 48 70 105 95 113 10 3 26 22 35 43 15 33 30 45 114 86 126 63 173 68 297 31 139 -41 202 -75 296 -163 76 -72 88 -88 122 -168 51 -120 49 -193 -5 -251 -28 -30 -18 -39 15 -13 22 17 40 20 129 20 81 -1 99 -3 83 -12 -30 -16 -30 -16 -11 -36 9 -11 22 -48 28 -83 l11 -64 11 49 c6 27 18 54 27 59 12 8 50 2 140 -20 68 -17 125 -29 127 -28 1 1 -34 37 -78 81 -79 78 -94 99 -65 88 27 -11 16 5 -15 21 -16 8 -55 15 -87 15 l-58 0 50 32 c28 17 83 49 123 71 50 27 77 49 89 71 8 17 33 50 54 73 45 49 48 60 16 68 -24 6 -110 -26 -138 -51 -8 -7 -37 -20 -63 -28 -27 -8 -66 -31 -91 -55 -25 -23 -51 -41 -58 -41 -8 0 -27 -36 -46 -85 -18 -47 -35 -85 -39 -85 -5 0 -20 41 -36 90 -53 171 -96 243 -209 355 -56 55 -140 127 -187 160 l-84 60 -86 2 c-47 1 -114 -3 -148 -7z"
       id="path12"
       style="fill:#000000;fill-opacity:0.41154563" />
    <path
       d="M5190 11251 c-82 -26 -113 -45 -161 -99 -53 -59 -192 -332 -208 -410 -16 -77 -14 -328 5 -449 22 -150 50 -281 57 -263 3 8 15 47 28 85 43 138 156 325 232 386 29 22 71 64 94 94 23 29 60 65 82 81 22 16 41 31 41 34 0 3 -15 7 -34 8 -19 2 -51 9 -70 17 -19 8 -51 15 -69 15 -19 0 -51 7 -70 15 -20 8 -57 15 -82 15 -32 0 -47 5 -52 15 -3 9 -3 18 -1 20 3 3 159 28 349 57 189 28 346 53 348 55 3 2 -1 9 -7 15 -7 7 -12 28 -12 48 0 24 -12 54 -41 98 -38 58 -48 66 -132 107 -86 41 -191 76 -227 74 -8 0 -40 -8 -70 -18z"
       id="path14"
       style="fill:#000000;fill-opacity:0.41154563" />
    <path
       d="M6705 10879 c-16 -5 -77 -28 -134 -51 l-104 -42 44 -38 c24 -21 117 -98 206 -170 89 -73 162 -136 162 -139 1 -3 -142 23 -316 58 -175 35 -334 62 -353 61 -31 -3 -36 -7 -48 -43 -82 -262 -115 -356 -122 -349 -4 5 -36 96 -71 201 l-63 193 -31 -29 c-16 -16 -66 -55 -110 -87 -44 -32 -109 -86 -145 -119 -91 -87 -351 -278 -340 -251 43 113 136 296 164 326 31 32 104 160 91 160 -17 0 -171 -129 -241 -201 -183 -190 -243 -345 -231 -594 9 -175 49 -287 144 -405 26 -33 66 -92 89 -132 34 -60 51 -79 95 -105 61 -36 147 -92 197 -128 41 -30 115 -58 241 -92 129 -35 343 -43 488 -19 330 56 699 270 886 513 53 69 185 311 224 409 25 63 27 80 26 194 -1 136 -17 290 -39 378 -24 96 -108 253 -172 320 -71 74 -122 103 -265 153 -116 40 -202 49 -272 28z"
       id="path16"
       style="fill:#000000;fill-opacity:0.41154563" />
    <path
       d="M3405 10490 c72 -40 152 -85 178 -100 l49 -27 -74 -6 c-40 -4 -187 -12 -325 -19 -223 -10 -285 -18 -240 -30 6 -2 90 -45 185 -97 107 -59 168 -97 160 -102 -12 -6 -122 -41 -745 -233 -128 -40 -236 -75 -240 -79 -4 -5 75 -7 175 -5 100 2 182 1 182 -2 0 -3 -92 -82 -204 -175 l-205 -170 67 -8 c37 -5 111 -7 166 -5 l98 4 52 56 c28 30 65 63 81 73 17 10 58 45 92 78 57 55 70 62 155 86 79 22 112 26 223 26 110 -1 154 -6 280 -34 83 -18 168 -42 190 -53 58 -30 366 -338 427 -428 67 -99 183 -341 247 -515 29 -77 56 -149 61 -160 8 -17 9 -17 5 5 -61 338 -249 887 -448 1312 -79 169 -244 435 -303 489 -45 41 -185 129 -213 134 -28 6 -153 39 -186 50 -11 4 39 -26 110 -65z"
       id="path18"
       style="fill:#000000;fill-opacity:0.41154563" />
    <path
       d="M1731 9579 c-85 -44 -117 -69 -88 -69 10 0 40 -16 68 -35 28 -19 58 -35 67 -35 8 0 43 -16 78 -35 34 -19 72 -35 83 -35 11 0 67 35 123 78 57 43 132 98 167 122 l64 45 -93 3 c-105 3 -122 0 -114 -23 9 -23 -68 -20 -134 5 -79 30 -134 25 -221 -21z"
       id="path20"
       style="fill:#000000;fill-opacity:0.41154563" />
    <path
       d="M3371 9340 c-68 -38 -155 -104 -142 -108 6 -2 23 6 38 17 21 17 39 21 87 20 34 -1 80 4 104 11 34 11 42 18 42 37 0 15 -6 23 -18 23 -10 0 -27 6 -38 14 -18 13 -26 12 -73 -14z"
       id="path22"
       style="fill:#000000;fill-opacity:0.41154563" />
    <path
       d="M7365 9084 c-36 -24 -61 -34 -90 -34 -22 0 -49 -7 -59 -15 -11 -8 -38 -15 -60 -15 -47 0 -115 -43 -177 -110 -26 -29 -45 -40 -65 -40 -16 0 -100 -34 -186 -76 -139 -67 -174 -79 -315 -111 l-158 -35 -195 10 c-208 11 -263 23 -380 82 -30 15 -95 42 -145 59 -94 34 -140 58 -215 117 -25 19 -60 46 -77 60 -18 14 -49 50 -69 80 -19 31 -37 54 -39 52 -12 -11 39 -242 74 -337 48 -131 71 -237 71 -326 0 -63 -21 -220 -40 -300 -5 -22 -8 -41 -6 -42 9 -9 123 53 161 88 41 38 51 42 121 50 42 4 91 13 108 18 66 20 103 20 181 1 44 -11 96 -20 115 -20 59 0 194 -53 255 -100 l55 -42 71 42 c39 23 116 86 172 140 56 53 125 109 152 123 83 41 205 75 303 82 91 7 93 7 134 -21 25 -18 49 -45 60 -71 21 -47 18 -58 -30 -122 -21 -29 -22 -32 -6 -28 25 8 212 56 454 118 261 67 338 93 408 139 85 54 88 64 18 56 -32 -4 -73 -14 -91 -22 -45 -19 -115 -18 -143 2 -23 16 -156 57 -249 76 -29 6 -53 14 -53 18 0 3 16 12 35 19 19 7 58 28 86 47 28 19 57 34 64 34 7 0 15 9 18 20 5 19 -1 20 -260 22 l-265 3 46 60 c53 67 122 127 181 157 22 11 66 45 97 74 l57 54 -37 -1 c-24 -1 -54 -13 -87 -35z"
       id="path24"
       style="fill:#000000;fill-opacity:0.41154563" />
    <path
       d="M1465 8550 c-22 -5 -74 -20 -115 -35 -41 -15 -124 -43 -185 -62 -60 -18 -146 -51 -190 -72 -44 -22 -96 -44 -115 -50 -39 -13 -224 -176 -290 -256 -48 -59 -90 -144 -121 -246 -12 -41 -38 -105 -57 -144 -50 -99 -62 -165 -69 -370 -5 -150 -3 -190 11 -237 9 -31 16 -74 16 -96 0 -63 17 -138 54 -231 19 -47 39 -109 45 -137 8 -34 27 -69 59 -109 26 -32 77 -107 114 -168 129 -209 164 -245 361 -364 61 -37 168 -107 236 -155 133 -95 227 -145 331 -177 78 -24 598 -121 649 -121 20 0 61 7 91 15 32 8 99 15 159 15 143 0 206 12 426 81 209 66 233 77 383 170 341 211 407 267 560 471 144 191 221 346 279 555 25 89 28 114 28 268 0 148 -4 189 -29 315 -16 80 -39 166 -52 191 -66 131 -273 349 -389 407 -22 11 -74 27 -115 36 -147 32 -453 87 -457 82 -3 -2 49 -159 115 -348 67 -188 120 -343 119 -344 -1 -1 -166 146 -366 327 -200 181 -366 329 -370 329 -3 0 -99 -93 -213 -207 -115 -114 -208 -203 -208 -197 0 6 22 129 50 275 27 145 50 267 50 272 0 4 -70 7 -155 7 -131 0 -162 -3 -205 -20 -28 -11 -70 -20 -93 -20 -23 -1 -69 -7 -102 -15 -33 -8 -96 -15 -140 -15 -44 -1 -150 -9 -235 -19 -85 -10 -156 -17 -157 -16 -5 3 248 156 281 170 19 8 36 21 39 29 4 9 14 12 25 9 25 -6 37 1 200 109 74 48 141 88 150 88 10 0 24 5 32 10 18 12 -375 12 -435 0z"
       id="path26"
       style="fill:#000000;fill-opacity:0.41154563" />
    <path
       d="M7860 8435 c-10 -12 -10 -15 4 -15 9 0 16 7 16 15 0 8 -2 15 -4 15 -2 0 -9 -7 -16 -15z"
       id="path28"
       style="fill:#000000;fill-opacity:0.41154563" />
    <path
       d="M7667 8257 c-133 -121 -163 -153 -150 -159 10 -3 62 -7 115 -7 l97 -1 46 40 c25 22 53 40 61 40 8 0 14 6 14 14 0 8 5 16 12 18 8 3 0 19 -19 44 -50 62 -56 134 -12 134 19 0 26 14 11 24 -4 2 -83 -64 -175 -147z"
       id="path30"
       style="fill:#000000;fill-opacity:0.41154563" />
    <path
       d="M1840 8364 c0 -14 3 -15 18 -3 9 7 19 15 21 16 2 2 -5 3 -17 3 -14 0 -22 -6 -22 -16z"
       id="path32"
       style="fill:#000000;fill-opacity:0.41154563" />
    <path
       d="M6915 8342 c-148 -15 -303 -108 -490 -291 -92 -91 -94 -94 -75 -110 47 -38 60 -221 25 -353 -7 -27 -8 -48 -4 -48 5 0 9 4 9 9 0 16 92 77 205 137 61 31 169 99 241 150 72 52 162 107 200 122 l69 29 -57 -118 c-32 -65 -67 -123 -78 -129 -10 -6 -32 -32 -46 -58 -15 -26 -34 -54 -41 -63 -13 -15 6 -17 234 -22 209 -4 261 -8 332 -26 115 -29 236 -88 334 -162 81 -62 132 -89 162 -89 11 0 -12 33 -62 91 -43 50 -90 106 -105 124 l-28 33 59 -5 c49 -5 65 -2 94 16 22 14 51 21 83 21 49 1 49 1 27 19 -12 10 -44 22 -70 26 -26 3 -68 18 -93 32 -25 13 -66 27 -92 30 -27 3 -53 12 -59 19 -6 8 -27 14 -45 14 -28 0 -214 65 -214 75 0 2 71 31 158 65 86 35 161 67 167 72 5 5 -120 7 -298 6 -169 -2 -307 0 -307 3 0 3 52 50 115 103 63 54 115 100 115 103 0 2 -8 2 -17 -1 -19 -6 -764 -136 -777 -136 -4 0 73 66 171 146 228 187 214 172 158 166z"
       id="path34"
       style="fill:#000000;fill-opacity:0.41154563" />
    <path
       d="M5590 8116 c-63 -18 -117 -47 -246 -132 -128 -84 -184 -142 -184 -189 0 -17 -20 -72 -44 -121 -24 -50 -47 -101 -51 -114 l-7 -25 28 26 c16 14 45 36 64 49 19 13 64 49 99 79 244 214 344 259 587 262 91 2 117 -1 155 -18 68 -30 128 -89 161 -158 41 -86 39 -161 -7 -296 -19 -57 -35 -115 -35 -130 0 -16 -14 -44 -34 -68 -19 -22 -36 -45 -38 -51 -2 -6 -22 -4 -52 5 -27 8 -82 15 -121 15 -59 0 -75 -4 -90 -20 -23 -25 -52 -25 -90 0 -41 27 -138 29 -133 3 3 -14 14 -18 50 -18 30 0 53 -6 65 -17 17 -16 41 -18 176 -18 86 0 157 -2 157 -4 0 -2 -45 -47 -100 -101 -55 -54 -98 -100 -96 -102 8 -8 112 46 132 68 53 58 180 271 240 400 76 164 87 227 60 342 -20 85 -44 132 -90 176 -20 19 -36 43 -36 53 0 17 -46 48 -73 48 -8 0 -25 9 -39 19 -53 42 -308 65 -408 37z"
       id="path36"
       style="fill:#000000;fill-opacity:0.41154563" />
    <path
       d="M5742 7810 c-33 -5 -79 -24 -125 -51 -39 -24 -101 -57 -137 -75 -51 -25 -168 -114 -243 -184 -5 -4 23 -15 61 -24 38 -9 103 -32 143 -51 l73 -35 228 0 227 0 17 31 c28 56 45 122 51 210 5 81 5 87 -18 108 -70 66 -160 90 -277 71z"
       id="path38"
       style="fill:#000000;fill-opacity:0.41154563" />
    <path
       d="M6397 7392 c-40 -37 -87 -77 -104 -87 -18 -11 -33 -27 -33 -37 0 -10 -7 -18 -15 -18 -28 0 -64 -31 -100 -86 -20 -30 -53 -65 -74 -78 -20 -13 -58 -47 -83 -75 -49 -55 -58 -86 -73 -246 -4 -38 -9 -78 -12 -89 -11 -38 15 -3 127 173 63 100 119 181 123 181 5 0 52 -29 104 -65 53 -36 97 -64 98 -63 1 2 -19 54 -46 115 l-48 113 24 26 25 27 208 -7 c136 -5 217 -4 235 3 65 25 22 31 -250 33 l-278 3 103 69 c56 38 102 75 102 82 0 7 25 24 55 39 64 30 73 55 19 55 -30 0 -46 -10 -107 -68z"
       id="path40"
       style="fill:#000000;fill-opacity:0.41154563" />
    <path
       d="M6805 7389 c-33 -4 -73 -13 -90 -20 -30 -13 -30 -13 -5 -16 113 -14 283 -78 404 -151 36 -22 119 -59 184 -83 l117 -44 -50 -7 c-103 -15 -406 -28 -646 -28 -137 0 -249 -3 -249 -8 0 -4 38 -122 85 -262 47 -139 84 -255 82 -256 -3 -3 -304 207 -378 264 -31 23 -62 42 -70 42 -8 0 -22 -13 -32 -29 -51 -87 -497 -700 -497 -684 0 11 22 174 49 364 28 189 48 345 46 347 -3 4 -352 -141 -406 -169 -54 -27 -112 -99 -167 -207 -149 -292 -188 -496 -142 -748 33 -185 58 -264 126 -399 114 -225 236 -390 351 -475 59 -43 338 -202 432 -246 257 -119 586 -144 934 -73 322 66 548 197 833 483 280 281 350 408 465 846 41 157 43 172 44 310 0 224 -51 451 -145 635 -47 92 -217 349 -253 383 -13 12 -64 44 -113 71 -49 26 -110 60 -136 75 -72 41 -223 76 -360 81 -263 11 -356 12 -413 4z"
       id="path42"
       style="fill:#000000;fill-opacity:0.41154563" />
    <path
       d="M3787 5931 c-10 -17 -39 -47 -65 -68 -26 -20 -66 -54 -89 -75 -23 -21 -70 -51 -104 -68 -87 -42 -99 -55 -99 -107 0 -87 52 -202 174 -383 28 -41 62 -97 77 -123 26 -48 26 -48 32 -20 7 35 24 249 37 453 6 87 21 209 35 279 14 69 24 129 23 133 -2 5 -11 -5 -21 -21z"
       id="path44"
       style="fill:#000000;fill-opacity:0.41154563" />
    <path
       d="M897 5672 c-36 -36 -55 -68 -77 -128 -33 -86 -37 -133 -15 -179 7 -16 14 -25 14 -18 1 14 38 28 69 24 16 -2 22 3 22 18 0 15 6 21 23 21 13 0 32 9 42 20 10 11 31 20 47 20 29 0 68 -30 68 -53 0 -8 17 -35 37 -62 36 -46 38 -51 37 -124 0 -46 -7 -90 -16 -113 -17 -39 -13 -55 9 -37 7 6 13 24 13 40 0 23 12 37 68 79 l67 52 5 -129 c5 -123 6 -130 35 -169 17 -22 39 -60 49 -83 l19 -42 34 33 c18 17 33 40 33 50 0 22 16 23 63 3 48 -20 47 -20 47 20 0 25 4 35 16 35 9 0 25 22 39 53 12 28 59 122 104 207 45 85 81 158 81 162 0 5 -17 8 -38 8 -71 0 -472 136 -588 200 -40 22 -97 49 -126 60 -30 11 -67 34 -83 50 -16 17 -34 30 -40 30 -6 0 -32 -22 -58 -48z"
       id="path46"
       style="fill:#000000;fill-opacity:0.41154563" />
    <path
       d="M3169 5530 c-77 -41 -249 -100 -378 -131 -189 -46 -242 -51 -521 -56 -283 -5 -320 -10 -320 -47 0 -19 -66 -142 -140 -263 -54 -88 -89 -168 -77 -179 2 -3 37 11 77 30 46 22 82 33 95 30 16 -4 90 28 244 105 240 120 271 129 310 87 29 -31 30 -104 1 -196 -11 -36 -20 -65 -20 -65 0 0 31 1 70 3 68 4 70 3 80 -24 6 -15 14 -47 17 -72 6 -41 8 -44 32 -39 14 3 38 10 54 16 l27 11 -51 82 c-29 46 -67 107 -86 137 -19 29 -33 55 -31 56 2 2 159 -27 348 -65 189 -38 346 -68 347 -66 2 1 -12 79 -31 172 -19 93 -33 170 -32 171 1 1 93 -74 204 -167 111 -93 202 -167 202 -164 0 2 -22 32 -49 67 -79 101 -185 268 -211 332 -13 33 -38 87 -56 120 -17 33 -37 77 -44 98 -6 20 -15 37 -18 37 -4 -1 -23 -10 -43 -20z"
       id="path48"
       style="fill:#000000;fill-opacity:0.41154563" />
    <path
       d="M5005 4889 c-68 -28 -71 -31 -121 -133 -35 -73 -47 -112 -59 -196 -19 -125 -41 -209 -62 -232 -11 -12 -12 -21 -4 -37 6 -11 11 -41 11 -68 l1 -48 92 95 c101 104 155 193 201 332 22 65 26 95 26 192 0 132 2 130 -85 95z"
       id="path50"
       style="fill:#000000;fill-opacity:0.41154563" />
    <path
       d="M3411 4773 c9 -54 16 -99 14 -101 -1 -1 -127 28 -279 66 -152 38 -276 67 -276 65 0 -3 52 -80 115 -170 63 -90 115 -167 115 -171 0 -4 -124 -6 -275 -5 -151 1 -275 1 -275 -1 0 -2 31 -27 69 -55 78 -58 147 -129 161 -167 6 -14 10 -47 10 -74 0 -47 -2 -50 -42 -74 -34 -20 -52 -23 -88 -19 -37 4 -48 1 -64 -16 -11 -12 -27 -21 -36 -21 -10 0 -37 -9 -61 -20 -24 -11 -39 -20 -34 -20 6 0 154 -23 329 -51 l319 -50 126 -111 c69 -61 132 -117 140 -124 13 -12 12 -16 -4 -34 -12 -13 -14 -20 -5 -20 30 0 208 -94 380 -202 205 -128 230 -142 236 -135 3 2 -9 42 -26 88 -77 209 -117 383 -140 599 -5 58 -22 175 -36 260 -13 85 -28 206 -31 268 -7 132 -10 138 -111 209 -37 26 -105 78 -152 115 -47 37 -87 68 -91 68 -3 0 2 -44 12 -97z"
       id="path52"
       style="fill:#000000;fill-opacity:0.41154563" />
    <path
       d="M5263 4805 c-2 -19 -16 -76 -33 -127 -16 -51 -34 -127 -40 -168 -14 -93 -44 -161 -103 -233 -25 -31 -48 -65 -52 -76 -10 -31 -165 -131 -204 -131 -12 0 -21 -4 -21 -8 0 -4 16 -62 34 -127 41 -142 53 -155 135 -155 97 0 278 39 371 80 47 21 119 48 160 60 148 43 213 82 345 209 66 64 135 123 152 133 24 12 32 24 35 50 3 31 0 35 -62 70 -39 22 -79 37 -99 38 -21 0 -67 18 -120 47 -47 25 -120 63 -162 84 -62 31 -100 61 -205 163 -71 69 -129 126 -129 126 0 0 -1 -16 -2 -35z"
       id="path54"
       style="fill:#000000;fill-opacity:0.41154563" />
    <path
       d="M2755 4615 l-30 -14 49 -1 c42 0 47 2 36 15 -15 18 -16 18 -55 0z"
       id="path56"
       style="fill:#000000;fill-opacity:0.41154563" />
    <path
       d="M1140 4523 c1 -4 30 -28 65 -53 51 -36 61 -46 47 -52 -9 -4 -156 -35 -327 -68 -171 -34 -321 -64 -334 -67 -20 -5 15 -26 183 -110 115 -58 205 -108 200 -112 -9 -8 -796 -431 -904 -486 -30 -16 -50 -29 -45 -31 6 -2 175 27 378 64 202 37 367 65 367 62 0 -3 -45 -79 -99 -170 -94 -156 -109 -187 -79 -162 7 6 105 67 217 136 161 99 207 123 221 116 27 -14 92 -91 172 -203 l71 -99 51 121 c28 67 54 121 57 121 4 0 58 -29 120 -65 63 -36 117 -65 120 -65 4 0 30 63 59 140 l52 139 47 15 46 14 -41 1 c-22 1 -66 9 -96 20 -45 16 -73 18 -167 13 -105 -5 -115 -3 -164 21 -46 22 -73 26 -237 37 -102 6 -194 14 -205 17 -36 10 326 102 405 103 25 0 65 9 89 20 38 18 65 20 237 20 l194 0 -20 50 c-35 89 -59 129 -110 182 -35 36 -54 68 -64 103 -18 60 -99 145 -187 194 -68 38 -79 38 -118 6 l-30 -26 -3 28 c-3 28 -4 28 -85 31 -46 2 -83 -1 -83 -5z"
       id="path58"
       style="fill:#000000;fill-opacity:0.41154563" />
    <path
       d="M6206 4259 c-14 -11 -26 -29 -26 -38 0 -21 -77 -95 -109 -106 -19 -6 -19 -8 -6 -21 17 -18 19 -36 16 -154 -3 -84 -2 -86 33 -131 40 -53 64 -67 72 -41 19 61 59 87 135 87 58 0 62 -2 98 -40 20 -22 46 -53 58 -70 l22 -30 1 140 0 139 73 -71 c39 -39 95 -85 124 -102 l52 -30 3 47 3 47 63 3 c57 3 68 0 120 -33 32 -19 63 -35 70 -35 7 0 25 -7 40 -16 19 -12 15 -5 -13 20 -22 21 -60 57 -85 80 -25 24 -71 60 -102 81 -55 36 -78 67 -92 128 -6 27 -6 27 48 27 32 0 71 7 91 17 34 16 39 16 84 0 27 -9 66 -17 88 -17 46 0 143 -45 188 -88 17 -16 55 -59 84 -95 30 -37 60 -67 68 -67 30 0 8 38 -79 132 -90 97 -98 103 -222 165 l-130 65 -78 -4 c-58 -2 -78 0 -78 9 0 18 -69 17 -113 -2 -58 -24 -316 -21 -399 5 -77 24 -70 24 -102 -1z"
       id="path60"
       style="fill:#000000;fill-opacity:0.41154563" />
    <path
       d="M2783 3212 c-125 -236 -169 -357 -161 -447 l3 -40 29 52 c21 38 36 54 56 58 15 3 38 17 50 31 13 13 27 24 30 24 4 0 21 -36 39 -79 30 -76 31 -87 31 -220 0 -129 6 -161 25 -131 4 6 24 19 46 30 36 19 39 24 39 63 0 39 5 46 66 104 37 35 70 61 73 58 4 -2 16 -32 25 -67 21 -74 23 -78 35 -98 21 -33 51 -120 51 -146 0 -14 19 -56 44 -93 24 -36 56 -100 71 -141 33 -91 81 -183 105 -205 17 -15 18 -10 25 117 7 153 26 287 52 371 l18 59 60 -65 c33 -36 80 -97 105 -137 26 -42 66 -90 95 -113 l50 -40 8 223 c9 259 16 239 -103 301 -60 31 -81 48 -99 79 -12 22 -34 46 -48 54 -14 7 -38 31 -52 52 -19 27 -51 52 -103 80 -42 23 -116 75 -165 116 -48 41 -112 92 -142 113 -29 21 -76 58 -104 81 -27 24 -62 46 -78 49 -16 4 -44 17 -63 30 l-35 24 -78 -147z"
       id="path62"
       style="fill:#000000;fill-opacity:0.41154563" />
    <path
       d="M5955 3241 c-3 -6 -32 -29 -63 -51 -142 -99 -164 -117 -189 -155 -14 -22 -54 -71 -88 -110 -34 -38 -71 -83 -82 -100 -49 -71 -154 -545 -157 -702 -2 -143 2 -143 157 17 143 147 208 236 233 321 9 30 38 108 65 175 56 140 70 195 98 394 12 80 25 160 31 179 10 35 8 51 -5 32z"
       id="path64"
       style="fill:#000000;fill-opacity:0.41154563" />
  </g>
</svg>
